

<svg width="80" height="80" viewBox="0 0 80 80" fill="none" xmlns="http://www.w3.org/2000/svg">
<path fill-rule="evenodd" clip-rule="evenodd" d="M40.6569 70.2662C34.6563 70.2662 31.8678 69.3902 27.0206 65.8862C23.9546 69.8282 14.2458 72.9089 13.8223 67.6382C13.8223 63.6818 12.9463 60.3384 11.9535 56.6884C10.771 52.1916 9.42776 47.1838 9.42776 39.9278C9.42776 22.5977 23.6481 9.56 40.4963 9.56C57.3591 9.56 70.5721 23.2401 70.5721 40.0883C70.6286 56.676 57.2445 70.1778 40.6569 70.2662ZM40.9051 24.5394C32.7 24.1161 26.3052 29.7954 24.889 38.7014C23.721 46.0743 25.7942 55.0532 27.5608 55.5204C28.4076 55.7248 30.5392 54.002 31.8678 52.6734C34.0647 54.1911 36.623 55.1026 39.2846 55.316C47.7864 55.725 55.051 49.2525 55.6218 40.76C55.9541 32.2494 49.4082 25.0411 40.9051 24.5541V24.5394Z" fill="url(#paint0_linear_5_51)"/>
<path fill-rule="evenodd" clip-rule="evenodd" d="M40.6569 70.2662C34.6563 70.2662 31.8678 69.3902 27.0206 65.8862C23.9546 69.8282 14.2458 72.9089 13.8223 67.6382C13.8223 63.6818 12.9463 60.3384 11.9535 56.6884C10.771 52.1916 9.42776 47.1838 9.42776 39.9278C9.42776 22.5977 23.6481 9.56 40.4963 9.56C57.3591 9.56 70.5721 23.2401 70.5721 40.0883C70.6286 56.676 57.2445 70.1778 40.6569 70.2662ZM40.9051 24.5394C32.7 24.1161 26.3052 29.7954 24.889 38.7014C23.721 46.0743 25.7942 55.0532 27.5608 55.5204C28.4076 55.7248 30.5392 54.002 31.8678 52.6734C34.0647 54.1911 36.623 55.1026 39.2846 55.316C47.7864 55.725 55.051 49.2525 55.6218 40.76C55.9541 32.2494 49.4082 25.0411 40.9051 24.5541V24.5394Z" fill="url(#paint1_radial_5_51)"/>
<g filter="url(#filter0_f_5_51)">
<path d="M40.6907 70.3446C56.8392 70.3446 69.9302 57.1643 69.9302 40.9056C69.9302 24.6468 56.8392 11.4665 40.6907 11.4665C24.5421 11.4665 11.4512 24.6468 11.4512 40.9056C11.4512 57.1643 24.5421 70.3446 40.6907 70.3446Z" fill="url(#paint2_linear_5_51)"/>
</g>
<g filter="url(#filter1_f_5_51)">
<path d="M40.4298 67.5205C55.6119 67.5205 67.9195 55.1304 67.9195 39.8465C67.9195 24.5626 55.6119 12.1725 40.4298 12.1725C25.2476 12.1725 12.94 24.5626 12.94 39.8465C12.94 55.1304 25.2476 67.5205 40.4298 67.5205Z" fill="url(#paint3_linear_5_51)"/>
</g>
<g filter="url(#filter2_f_5_51)">
<path d="M42.5144 19.1187C30.6655 18.4508 20.522 27.5838 19.8583 39.5178C19.1946 51.4518 28.2619 61.6677 40.1108 62.3357C51.9597 63.0036 62.1032 53.8707 62.7669 41.9366C63.4307 30.0026 54.3633 19.7867 42.5144 19.1187Z" fill="url(#paint4_linear_5_51)"/>
</g>
<g filter="url(#filter3_f_5_51)">
<path opacity="0.53" d="M16.9282 61.0033C17.883 60.8542 17.9382 56.0674 17.0515 50.3116C16.1648 44.5559 14.672 40.0108 13.7172 40.1599C12.7624 40.309 12.7072 45.0958 13.5939 50.8515C14.4806 56.6073 15.9734 61.1524 16.9282 61.0033Z" fill="black" fill-opacity="0.38"/>
</g>
<g filter="url(#filter4_f_5_51)">
<path d="M39.954 18.2968C40.5828 17.8535 41.3334 17.6155 42.1028 17.6155C42.8722 17.6155 43.6228 17.8535 44.2516 18.2968C45.1726 18.9568 46.4005 19.1563 47.4902 18.8033C48.9944 18.3428 50.6521 18.88 51.573 20.1386C52.2637 21.0595 53.3688 21.6275 54.52 21.6275C56.0702 21.6428 57.4823 22.6712 57.9888 24.16C58.3572 25.2344 59.2167 26.1247 60.3219 26.4777C61.0496 26.7278 61.6822 27.1969 62.1328 27.8207C62.5835 28.4445 62.8302 29.1924 62.8391 29.9619C62.8391 31.0977 63.407 32.2028 64.3279 32.8782C65.5865 33.8298 66.1237 35.4875 65.6633 36.9763C65.3102 38.0661 65.5098 39.2786 66.1698 40.2302C67.0907 41.5042 67.0907 43.2386 66.1698 44.5279C65.5098 45.4488 65.3102 46.6768 65.6633 47.7665C66.1237 49.2554 65.5865 50.9284 64.3279 51.8493C63.407 52.54 62.8544 53.6451 62.8391 54.7809C62.8302 55.5504 62.5835 56.2983 62.1328 56.9221C61.6822 57.5459 61.0496 58.015 60.3219 58.2651C59.2321 58.6335 58.3572 59.493 57.9888 60.5828C57.7422 61.311 57.2765 61.9452 56.6555 62.3985C56.0346 62.8518 55.2887 63.1022 54.52 63.1154C53.3688 63.1154 52.2637 63.6833 51.573 64.6042C51.1132 65.2205 50.474 65.6796 49.7432 65.9186C49.0123 66.1577 48.2254 66.165 47.4902 65.9395C46.9453 65.7693 46.3685 65.7264 45.8043 65.8142C45.2402 65.902 44.7037 66.1182 44.2363 66.4461C42.9623 67.367 41.2279 67.367 39.9386 66.4461C39.473 66.1206 38.9392 65.9057 38.3779 65.8179C37.8167 65.7302 37.2428 65.7718 36.7 65.9395C35.2112 66.4 33.5535 65.8628 32.6172 64.6042C32.2748 64.1485 31.8325 63.7774 31.3243 63.5193C30.8161 63.2612 30.2555 63.123 29.6856 63.1154C28.9142 63.1054 28.1649 62.8564 27.5409 62.4029C26.917 61.9493 26.4489 61.3134 26.2014 60.5828C25.8484 59.5084 24.9735 58.6335 23.8837 58.2651C23.1531 58.0176 22.5172 57.5496 22.0636 56.9256C21.6101 56.3016 21.3612 55.5523 21.3512 54.7809C21.3512 53.6451 20.7833 52.54 19.8623 51.8647C19.2457 51.4018 18.7877 50.7592 18.5513 50.0253C18.3149 49.2914 18.3118 48.5023 18.5423 47.7665C18.88 46.6768 18.6958 45.4642 18.0205 44.5126C17.5772 43.8837 17.3392 43.1331 17.3392 42.3637C17.3392 41.5943 17.5772 40.8438 18.0205 40.2149C18.6805 39.294 18.88 38.0661 18.5423 36.9763C18.0819 35.4875 18.6037 33.8298 19.8623 32.8935C20.7833 32.2028 21.3512 31.0977 21.3512 29.9619C21.3612 29.1905 21.6101 28.4412 22.0636 27.8172C22.5172 27.1932 23.1531 26.7252 23.8837 26.4777C24.9581 26.1247 25.8484 25.2498 26.2014 24.16C26.4489 23.4294 26.917 22.7935 27.5409 22.3399C28.1649 21.8864 28.9142 21.6374 29.6856 21.6275C30.8214 21.6275 31.9265 21.0595 32.6019 20.1386C33.0628 19.5193 33.7045 19.0582 34.4385 18.819C35.1725 18.5799 35.9627 18.5743 36.7 18.8033C37.7898 19.1563 39.0023 18.9568 39.954 18.2968Z" stroke="white" stroke-opacity="0.3" stroke-width="0.36"/>
</g>
<defs>
<filter id="filter0_f_5_51" x="10.2512" y="10.2665" width="60.8791" height="61.2781" filterUnits="userSpaceOnUse" color-interpolation-filters="sRGB">
<feFlood flood-opacity="0" result="BackgroundImageFix"/>
<feBlend mode="normal" in="SourceGraphic" in2="BackgroundImageFix" result="shape"/>
<feGaussianBlur stdDeviation="0.6" result="effect1_foregroundBlur_5_51"/>
</filter>
<filter id="filter1_f_5_51" x="10.54" y="9.77255" width="59.7795" height="60.1479" filterUnits="userSpaceOnUse" color-interpolation-filters="sRGB">
<feFlood flood-opacity="0" result="BackgroundImageFix"/>
<feBlend mode="normal" in="SourceGraphic" in2="BackgroundImageFix" result="shape"/>
<feGaussianBlur stdDeviation="1.2" result="effect1_foregroundBlur_5_51"/>
</filter>
<filter id="filter2_f_5_51" x="18.0241" y="17.2843" width="46.5771" height="46.8858" filterUnits="userSpaceOnUse" color-interpolation-filters="sRGB">
<feFlood flood-opacity="0" result="BackgroundImageFix"/>
<feBlend mode="normal" in="SourceGraphic" in2="BackgroundImageFix" result="shape"/>
<feGaussianBlur stdDeviation="0.9" result="effect1_foregroundBlur_5_51"/>
</filter>
<filter id="filter3_f_5_51" x="9.38335" y="36.5763" width="11.8787" height="28.0105" filterUnits="userSpaceOnUse" color-interpolation-filters="sRGB">
<feFlood flood-opacity="0" result="BackgroundImageFix"/>
<feBlend mode="normal" in="SourceGraphic" in2="BackgroundImageFix" result="shape"/>
<feGaussianBlur stdDeviation="1.79" result="effect1_foregroundBlur_5_51"/>
</filter>
<filter id="filter4_f_5_51" x="14.7593" y="15.0355" width="54.6812" height="54.6812" filterUnits="userSpaceOnUse" color-interpolation-filters="sRGB">
<feFlood flood-opacity="0" result="BackgroundImageFix"/>
<feBlend mode="normal" in="SourceGraphic" in2="BackgroundImageFix" result="shape"/>
<feGaussianBlur stdDeviation="1.2" result="effect1_foregroundBlur_5_51"/>
</filter>
<linearGradient id="paint0_linear_5_51" x1="16.6335" y1="55.8614" x2="70.5346" y2="39.873" gradientUnits="userSpaceOnUse">
<stop stop-color="#44CCFF"/>
<stop offset="0.662" stop-color="#5533EE"/>
<stop offset="1" stop-color="#9933DD"/>
</linearGradient>
<radialGradient id="paint1_radial_5_51" cx="0" cy="0" r="1" gradientTransform="matrix(46.3363 57.7025 -23.8782 19.0092 7.97309 -17.1776)" gradientUnits="userSpaceOnUse">
<stop stop-color="#0000FF"/>
<stop offset="1" stop-opacity="0"/>
</radialGradient>
<linearGradient id="paint2_linear_5_51" x1="52.9851" y1="57.7432" x2="64.9265" y2="81.1349" gradientUnits="userSpaceOnUse">
<stop stop-color="white" stop-opacity="0"/>
<stop offset="1" stop-color="white" stop-opacity="0.37"/>
</linearGradient>
<linearGradient id="paint3_linear_5_51" x1="24.9888" y1="16.2093" x2="28.6879" y2="21.6581" gradientUnits="userSpaceOnUse">
<stop stop-color="white"/>
<stop offset="1" stop-color="white" stop-opacity="0"/>
</linearGradient>
<linearGradient id="paint4_linear_5_51" x1="53.5071" y1="60.831" x2="49.3785" y2="54.1096" gradientUnits="userSpaceOnUse">
<stop stop-color="white" stop-opacity="0.69"/>
<stop offset="1" stop-color="white" stop-opacity="0"/>
</linearGradient>
</defs>
</svg>
