<svg width="212" height="212" viewBox="0 0 212 212" fill="none" xmlns="http://www.w3.org/2000/svg">
<rect width="212" height="212" rx="10" fill="#09090B"/>
<g filter="url(#filter0_d_7_8)">
<mask id="path-2-outside-1_7_8" maskUnits="userSpaceOnUse" x="17" y="53" width="169" height="110" fill="black">
<rect fill="white" x="17" y="53" width="169" height="110"/>
<path d="M25.1818 71.9091V61.9091H95V71.9091H65.7273V155H54.4545V71.9091H25.1818ZM112.398 155V61.9091H144.943C151.428 61.9091 156.777 63.0303 160.989 65.2727C165.201 67.4848 168.337 70.4697 170.398 74.2273C172.458 77.9545 173.489 82.0909 173.489 86.6364C173.489 90.6364 172.777 93.9394 171.352 96.5455C169.958 99.1515 168.11 101.212 165.807 102.727C163.534 104.242 161.064 105.364 158.398 106.091V107C161.246 107.182 164.11 108.182 166.989 110C169.867 111.818 172.277 114.424 174.216 117.818C176.155 121.212 177.125 125.364 177.125 130.273C177.125 134.939 176.064 139.136 173.943 142.864C171.822 146.591 168.473 149.545 163.898 151.727C159.322 153.909 153.367 155 146.034 155H112.398ZM123.67 145H146.034C153.398 145 158.625 143.576 161.716 140.727C164.837 137.848 166.398 134.364 166.398 130.273C166.398 127.121 165.595 124.212 163.989 121.545C162.383 118.848 160.095 116.697 157.125 115.091C154.155 113.455 150.64 112.636 146.58 112.636H123.67V145ZM123.67 102.818H144.58C147.973 102.818 151.034 102.152 153.761 100.818C156.519 99.4848 158.701 97.6061 160.307 95.1818C161.943 92.7576 162.761 89.9091 162.761 86.6364C162.761 82.5455 161.337 79.0758 158.489 76.2273C155.64 73.3485 151.125 71.9091 144.943 71.9091H123.67V102.818Z"/>
</mask>
<path d="M25.1818 71.9091V61.9091H95V71.9091H65.7273V155H54.4545V71.9091H25.1818ZM112.398 155V61.9091H144.943C151.428 61.9091 156.777 63.0303 160.989 65.2727C165.201 67.4848 168.337 70.4697 170.398 74.2273C172.458 77.9545 173.489 82.0909 173.489 86.6364C173.489 90.6364 172.777 93.9394 171.352 96.5455C169.958 99.1515 168.11 101.212 165.807 102.727C163.534 104.242 161.064 105.364 158.398 106.091V107C161.246 107.182 164.11 108.182 166.989 110C169.867 111.818 172.277 114.424 174.216 117.818C176.155 121.212 177.125 125.364 177.125 130.273C177.125 134.939 176.064 139.136 173.943 142.864C171.822 146.591 168.473 149.545 163.898 151.727C159.322 153.909 153.367 155 146.034 155H112.398ZM123.67 145H146.034C153.398 145 158.625 143.576 161.716 140.727C164.837 137.848 166.398 134.364 166.398 130.273C166.398 127.121 165.595 124.212 163.989 121.545C162.383 118.848 160.095 116.697 157.125 115.091C154.155 113.455 150.64 112.636 146.58 112.636H123.67V145ZM123.67 102.818H144.58C147.973 102.818 151.034 102.152 153.761 100.818C156.519 99.4848 158.701 97.6061 160.307 95.1818C161.943 92.7576 162.761 89.9091 162.761 86.6364C162.761 82.5455 161.337 79.0758 158.489 76.2273C155.64 73.3485 151.125 71.9091 144.943 71.9091H123.67V102.818Z" fill="#20D3EE"/>
<path d="M25.1818 71.9091H17.1818V79.9091H25.1818V71.9091ZM25.1818 61.9091V53.9091H17.1818V61.9091H25.1818ZM95 61.9091H103V53.9091H95V61.9091ZM95 71.9091V79.9091H103V71.9091H95ZM65.7273 71.9091V63.9091H57.7273V71.9091H65.7273ZM65.7273 155V163H73.7273V155H65.7273ZM54.4545 155H46.4545V163H54.4545V155ZM54.4545 71.9091H62.4545V63.9091H54.4545V71.9091ZM25.1818 71.9091H33.1818V61.9091H25.1818H17.1818V71.9091H25.1818ZM25.1818 61.9091V69.9091H95V61.9091V53.9091H25.1818V61.9091ZM95 61.9091H87V71.9091H95H103V61.9091H95ZM95 71.9091V63.9091H65.7273V71.9091V79.9091H95V71.9091ZM65.7273 71.9091H57.7273V155H65.7273H73.7273V71.9091H65.7273ZM65.7273 155V147H54.4545V155V163H65.7273V155ZM54.4545 155H62.4545V71.9091H54.4545H46.4545V155H54.4545ZM54.4545 71.9091V63.9091H25.1818V71.9091V79.9091H54.4545V71.9091ZM112.398 155H104.398V163H112.398V155ZM112.398 61.9091V53.9091H104.398V61.9091H112.398ZM160.989 65.2727L157.229 72.3344L157.249 72.3449L157.269 72.3554L160.989 65.2727ZM170.398 74.2273L163.383 78.0739L163.39 78.0859L163.396 78.0979L170.398 74.2273ZM171.352 96.5455L164.332 92.7089L164.315 92.7405L164.298 92.7722L171.352 96.5455ZM165.807 102.727L161.41 96.0439L161.39 96.0573L161.369 96.0709L165.807 102.727ZM158.398 106.091L156.293 98.3728L150.398 99.9805V106.091H158.398ZM158.398 107H150.398V114.506L157.888 114.984L158.398 107ZM166.989 110L162.717 116.764L162.717 116.764L166.989 110ZM173.943 142.864L180.896 146.821V146.821L173.943 142.864ZM163.898 151.727L160.455 144.506V144.506L163.898 151.727ZM123.67 145H115.67V153H123.67V145ZM161.716 140.727L167.137 146.61L167.14 146.608L161.716 140.727ZM163.989 121.545L157.115 125.639L157.125 125.656L157.136 125.673L163.989 121.545ZM157.125 115.091L153.264 122.098L153.292 122.113L153.319 122.128L157.125 115.091ZM123.67 112.636V104.636H115.67V112.636H123.67ZM123.67 102.818H115.67V110.818H123.67V102.818ZM153.761 100.818L150.279 93.6159L150.263 93.6235L150.248 93.6311L153.761 100.818ZM160.307 95.1818L153.676 90.706L153.657 90.7347L153.638 90.7635L160.307 95.1818ZM158.489 76.2273L152.802 81.8541L152.817 81.8692L152.832 81.8841L158.489 76.2273ZM123.67 71.9091V63.9091H115.67V71.9091H123.67ZM112.398 155H120.398V61.9091H112.398H104.398V155H112.398ZM112.398 61.9091V69.9091H144.943V61.9091V53.9091H112.398V61.9091ZM144.943 61.9091V69.9091C150.566 69.9091 154.515 70.8892 157.229 72.3344L160.989 65.2727L164.748 58.2111C159.038 55.1714 152.29 53.9091 144.943 53.9091V61.9091ZM160.989 65.2727L157.269 72.3554C160.248 73.9198 162.161 75.8452 163.383 78.0739L170.398 74.2273L177.412 70.3806C174.513 65.0942 170.154 61.0498 164.708 58.1901L160.989 65.2727ZM170.398 74.2273L163.396 78.0979C164.758 80.5606 165.489 83.3508 165.489 86.6364H173.489H181.489C181.489 80.831 180.159 75.3484 177.399 70.3566L170.398 74.2273ZM173.489 86.6364H165.489C165.489 89.7416 164.929 91.6169 164.332 92.7089L171.352 96.5455L178.372 100.382C180.624 96.2619 181.489 91.5311 181.489 86.6364H173.489ZM171.352 96.5455L164.298 92.7722C163.487 94.2891 162.518 95.3146 161.41 96.0439L165.807 102.727L170.204 109.411C173.701 107.11 176.43 104.014 178.407 100.319L171.352 96.5455ZM165.807 102.727L161.369 96.0709C159.821 97.1033 158.14 97.869 156.293 98.3728L158.398 106.091L160.503 113.809C163.989 112.858 167.248 111.382 170.244 109.384L165.807 102.727ZM158.398 106.091H150.398V107H158.398H166.398V106.091H158.398ZM158.398 107L157.888 114.984C159.165 115.065 160.752 115.523 162.717 116.764L166.989 110L171.261 103.236C167.468 100.84 163.328 99.2984 158.907 99.0163L158.398 107ZM166.989 110L162.717 116.764C164.335 117.786 165.883 119.36 167.27 121.787L174.216 117.818L181.162 113.849C178.67 109.488 175.4 105.85 171.261 103.236L166.989 110ZM174.216 117.818L167.27 121.787C168.363 123.7 169.125 126.405 169.125 130.273H177.125H185.125C185.125 124.323 183.947 118.724 181.162 113.849L174.216 117.818ZM177.125 130.273H169.125C169.125 133.678 168.366 136.49 166.99 138.907L173.943 142.864L180.896 146.821C183.763 141.783 185.125 136.201 185.125 130.273H177.125ZM173.943 142.864L166.99 138.907C165.817 140.969 163.83 142.897 160.455 144.506L163.898 151.727L167.341 158.948C173.117 156.194 177.827 152.213 180.896 146.821L173.943 142.864ZM163.898 151.727L160.455 144.506C157.324 145.999 152.668 147 146.034 147V155V163C154.066 163 161.32 161.819 167.341 158.948L163.898 151.727ZM146.034 155V147H112.398V155V163H146.034V155ZM123.67 145V153H146.034V145V137H123.67V145ZM146.034 145V153C154.026 153 161.798 151.531 167.137 146.61L161.716 140.727L156.294 134.844C155.452 135.62 152.769 137 146.034 137V145ZM161.716 140.727L167.14 146.608C171.833 142.28 174.398 136.692 174.398 130.273H166.398H158.398C158.398 132.036 157.842 133.417 156.292 134.847L161.716 140.727ZM166.398 130.273H174.398C174.398 125.686 173.208 121.347 170.842 117.418L163.989 121.545L157.136 125.673C157.981 127.077 158.398 128.557 158.398 130.273H166.398ZM163.989 121.545L170.862 117.452C168.462 113.422 165.07 110.293 160.931 108.054L157.125 115.091L153.319 122.128C155.119 123.101 156.303 124.275 157.115 125.639L163.989 121.545ZM157.125 115.091L160.986 108.084C156.621 105.679 151.724 104.636 146.58 104.636V112.636V120.636C149.556 120.636 151.69 121.23 153.264 122.098L157.125 115.091ZM146.58 112.636V104.636H123.67V112.636V120.636H146.58V112.636ZM123.67 112.636H115.67V145H123.67H131.67V112.636H123.67ZM123.67 102.818V110.818H144.58V102.818V94.8182H123.67V102.818ZM144.58 102.818V110.818C149.046 110.818 153.33 109.934 157.275 108.005L153.761 100.818L150.248 93.6311C148.738 94.3693 146.901 94.8182 144.58 94.8182V102.818ZM153.761 100.818L157.244 108.02C161.222 106.097 164.534 103.286 166.976 99.6002L160.307 95.1818L153.638 90.7635C152.868 91.9257 151.815 92.873 150.279 93.6159L153.761 100.818ZM160.307 95.1818L166.938 99.6576C169.571 95.757 170.761 91.3073 170.761 86.6364H162.761H154.761C154.761 88.5109 154.316 89.7581 153.676 90.706L160.307 95.1818ZM162.761 86.6364H170.761C170.761 80.4607 168.52 74.9451 164.145 70.5704L158.489 76.2273L152.832 81.8841C154.154 83.2064 154.761 84.6302 154.761 86.6364H162.761ZM158.489 76.2273L164.175 70.6004C159.193 65.5653 152.156 63.9091 144.943 63.9091V71.9091V79.9091C150.094 79.9091 152.087 81.1317 152.802 81.8541L158.489 76.2273ZM144.943 71.9091V63.9091H123.67V71.9091V79.9091H144.943V71.9091ZM123.67 71.9091H115.67V102.818H123.67H131.67V71.9091H123.67Z" fill="#20D3EE" mask="url(#path-2-outside-1_7_8)"/>
</g>
<defs>
<filter id="filter0_d_7_8" x="13.1819" y="53.9091" width="175.943" height="117.091" filterUnits="userSpaceOnUse" color-interpolation-filters="sRGB">
<feFlood flood-opacity="0" result="BackgroundImageFix"/>
<feColorMatrix in="SourceAlpha" type="matrix" values="0 0 0 0 0 0 0 0 0 0 0 0 0 0 0 0 0 0 127 0" result="hardAlpha"/>
<feOffset dy="4"/>
<feGaussianBlur stdDeviation="2"/>
<feComposite in2="hardAlpha" operator="out"/>
<feColorMatrix type="matrix" values="0 0 0 0 0 0 0 0 0 0 0 0 0 0 0 0 0 0 0.25 0"/>
<feBlend mode="normal" in2="BackgroundImageFix" result="effect1_dropShadow_7_8"/>
<feBlend mode="normal" in="SourceGraphic" in2="effect1_dropShadow_7_8" result="shape"/>
</filter>
</defs>
</svg>
